<svg width="40" height="40" viewBox="0 0 40 40" fill="none" xmlns="http://www.w3.org/2000/svg">
<rect x="0.5" y="0.5" width="39" height="39" rx="5.5" fill="#3399FF"/>
<g clip-path="url(#clip0_1224_3027)">
<path d="M21.2648 17.2859C19.0194 17.2859 17.3208 19.1423 17.3208 21.4421C17.3208 23.8666 19.091 25.5983 21.2648 25.5983C23.4385 25.5983 25.2022 23.8666 25.2022 21.4421C25.2022 19.1423 23.5101 17.2859 21.2648 17.2859ZM21.2648 19.4818C22.2345 19.4748 23.0285 20.3546 23.0285 21.4421C23.0285 22.5227 22.2345 23.4025 21.2648 23.4025C20.2951 23.4025 19.5011 22.5227 19.5011 21.4421C19.5011 20.3546 20.2951 19.4818 21.2648 19.4818Z" fill="white"/>
<path d="M32.5 24.1434C32.5 24.9469 31.8883 25.5981 31.1333 25.5981C30.3784 25.5981 29.7666 24.9469 29.7666 24.1434C29.7666 23.3399 30.3784 22.6887 31.1333 22.6887C31.8883 22.6887 32.5 23.3399 32.5 24.1434Z" fill="white"/>
<path d="M28.5215 25.3213H26.3738V15H28.5215V25.3213Z" fill="white"/>
<path fill-rule="evenodd" clip-rule="evenodd" d="M7.5 25.3213L11.4049 15H13.4225L17.2623 25.3213H14.5289L14.0733 23.8666H10.689L10.2334 25.3213H7.5ZM13.4225 21.7192H11.4049L12.4137 18.2557L13.4225 21.7192Z" fill="white"/>
</g>
<rect x="0.5" y="0.5" width="39" height="39" rx="5.5" stroke="#DFD8CF"/>
<defs>
<clipPath id="clip0_1224_3027">
<rect width="25" height="10.625" fill="white" transform="translate(7.5 15)"/>
</clipPath>
</defs>
</svg>
