<svg width="40" height="40" viewBox="0 0 40 40" fill="none" xmlns="http://www.w3.org/2000/svg">
<rect x="0.5" y="0.5" width="39" height="39" rx="5.5" fill="white"/>
<g clip-path="url(#clip0_1224_3018)">
<path d="M9.20454 29.3775H13.1818V19.7184L10.5774 15.1707L7.5 15.457V27.6729C7.5 28.6147 8.26279 29.3775 9.20454 29.3775Z" fill="#0085F7"/>
<path d="M26.8181 29.3775H30.7954C31.7372 29.3775 32.5 28.6147 32.5 27.6729V15.457L29.427 15.1707L26.8182 19.7184V29.3775H26.8181Z" fill="#00A94B"/>
<path d="M26.8182 12.3319L24.4819 16.7901L26.8182 19.7183L32.5 15.4569V13.1842C32.5 11.0777 30.0952 9.87455 28.4091 11.1388L26.8182 12.3319Z" fill="#FFBC00"/>
<path fill-rule="evenodd" clip-rule="evenodd" d="M13.1818 19.7184L10.9556 15.0158L13.1818 12.332L20 17.4457L26.8181 12.332V19.7184L20 24.832L13.1818 19.7184Z" fill="#FF4131"/>
<path d="M7.5 13.1842V15.4569L13.1818 19.7183V12.3319L11.5909 11.1388C9.90483 9.87455 7.5 11.0777 7.5 13.1842H7.5Z" fill="#E51C19"/>
</g>
<rect x="0.5" y="0.5" width="39" height="39" rx="5.5" stroke="#DFD8CF"/>
<defs>
<clipPath id="clip0_1224_3018">
<rect width="25" height="25" fill="white" transform="translate(7.5 7.5)"/>
</clipPath>
</defs>
</svg>
