<svg width="40" height="40" viewBox="0 0 40 40" fill="none" xmlns="http://www.w3.org/2000/svg">
<rect x="0.5" y="0.5" width="39" height="39" rx="5.5" fill="white"/>
<g clip-path="url(#clip0_1224_3034)">
<path d="M21.8327 12.1099C20.6391 12.1123 19.4676 12.4323 18.4386 13.0372C17.4096 13.642 16.5602 14.5098 15.9775 15.5515C15.4759 15.3073 14.9255 15.18 14.3676 15.1792C13.4932 15.1815 12.6481 15.4943 11.983 16.0619C11.3178 16.6294 10.8759 17.4148 10.736 18.2779C9.81236 18.6646 9.02365 19.3157 8.46892 20.1493C7.9142 20.9829 7.61822 21.9618 7.61816 22.9632C7.61947 24.31 8.15556 25.6011 9.10859 26.5528C10.0616 27.5044 11.3535 28.0386 12.7004 28.038C12.9135 28.036 13.1263 28.0207 13.3375 27.9921H27.4587C27.5329 27.9974 27.6072 28.001 27.6815 28.0028C27.7523 28.0008 27.8231 27.9972 27.8938 27.9921H28.2319V27.9669C29.3817 27.8309 30.4419 27.2758 31.2114 26.4068C31.981 25.5379 32.4066 24.4154 32.4074 23.2522V23.243C32.4047 22.1383 32.0189 21.0691 31.3164 20.2192C30.6139 19.3694 29.6386 18.7921 28.5583 18.5868C28.4941 16.8464 27.7573 15.1988 26.5028 13.9907C25.2484 12.7827 23.5742 12.1084 21.8327 12.1099Z" fill="url(#paint0_linear_1224_3034)"/>
</g>
<rect x="0.5" y="0.5" width="39" height="39" rx="5.5" stroke="#DFD8CF"/>
<defs>
<linearGradient id="paint0_linear_1224_3034" x1="32.4826" y1="23.265" x2="7.60901" y2="22.9219" gradientUnits="userSpaceOnUse">
<stop stop-color="#3E82F4"/>
<stop offset="1" stop-color="#93DCF7"/>
</linearGradient>
<clipPath id="clip0_1224_3034">
<rect width="25" height="16.25" fill="white" transform="translate(7.5 11.875)"/>
</clipPath>
</defs>
</svg>
