<svg width="40" height="40" viewBox="0 0 40 40" fill="none" xmlns="http://www.w3.org/2000/svg">
<rect x="0.5" y="0.5" width="39" height="39" rx="5.5" fill="#6001D1"/>
<path d="M18.6154 15.1885L16.2745 20.9979L14.0079 15.1862C13.9753 15.1029 13.9184 15.0313 13.8446 14.9808C13.7709 14.9302 13.6836 14.903 13.5941 14.9026H10.4442C10.3714 14.9026 10.2997 14.9204 10.2355 14.9546C10.1712 14.9888 10.1163 15.0383 10.0757 15.0987C10.035 15.1591 10.0098 15.2286 10.0024 15.301C9.99487 15.3734 10.0053 15.4465 10.0328 15.514L14.2729 25.9215L13.1896 28.6042C13.1607 28.6719 13.1491 28.7458 13.1558 28.8192C13.1626 28.8926 13.1875 28.9631 13.2283 29.0245C13.2692 29.0858 13.3246 29.1361 13.3897 29.1706C13.4548 29.2052 13.5274 29.223 13.6011 29.2225H16.6441C16.7325 29.2229 16.819 29.1967 16.8923 29.1474C16.9657 29.0981 17.0225 29.0279 17.0556 28.9459L22.4836 15.5233C22.5107 15.4569 22.5213 15.385 22.5145 15.3137C22.5077 15.2424 22.4838 15.1737 22.4447 15.1137C22.4057 15.0536 22.3527 15.0039 22.2902 14.9687C22.2278 14.9336 22.1577 14.9141 22.0861 14.9119H19.0246C18.9366 14.912 18.8506 14.9384 18.7777 14.9877C18.7048 15.037 18.6483 15.1069 18.6154 15.1885Z" fill="white"/>
<path d="M26.0844 10.9017C26.1182 10.8188 26.1762 10.748 26.2508 10.6986C26.3255 10.6493 26.4134 10.6236 26.5029 10.6251H29.5505C29.6232 10.6246 29.6949 10.6421 29.7592 10.676C29.8236 10.71 29.8785 10.7592 29.9192 10.8195C29.9599 10.8797 29.9851 10.9491 29.9926 11.0214C30 11.0938 29.9895 11.1668 29.962 11.2341L26.7353 19.1659C26.7024 19.2481 26.6456 19.3186 26.5723 19.3683C26.499 19.418 26.4125 19.4447 26.3239 19.4448H23.2809C23.2081 19.4449 23.1364 19.427 23.0721 19.3928C23.0078 19.3586 22.953 19.3091 22.9123 19.2487C22.8717 19.1883 22.8465 19.1189 22.839 19.0464C22.8315 18.974 22.842 18.9009 22.8694 18.8334L26.0844 10.9017Z" fill="white"/>
<path d="M23.5229 25.7215C24.8825 25.7215 25.9847 24.6193 25.9847 23.2597C25.9847 21.9 24.8825 20.7979 23.5229 20.7979C22.1632 20.7979 21.061 21.9 21.061 23.2597C21.061 24.6193 22.1632 25.7215 23.5229 25.7215Z" fill="white"/>
<rect x="0.5" y="0.5" width="39" height="39" rx="5.5" stroke="#DFD8CF"/>
</svg>
