<svg width="10" height="6" viewBox="0 0 10 6" fill="none" xmlns="http://www.w3.org/2000/svg">
<path d="M1.46303 5.5H8.53632C8.66145 5.49945 8.78361 5.46027 8.88735 5.38739C8.9911 5.31452 9.07178 5.21123 9.11918 5.09058C9.16658 4.96994 9.17859 4.83737 9.15367 4.70962C9.12875 4.58187 9.06803 4.46469 8.97919 4.37289L5.44887 0.694968C5.39006 0.63319 5.32008 0.584155 5.24299 0.550692C5.16589 0.517229 5.08319 0.5 4.99967 0.5C4.91615 0.5 4.83346 0.517229 4.75636 0.550692C4.67927 0.584155 4.60929 0.63319 4.55048 0.694968L1.02016 4.37289C0.931316 4.46469 0.870598 4.58187 0.84568 4.70962C0.820762 4.83737 0.832764 4.96994 0.880167 5.09058C0.92757 5.21123 1.00825 5.31452 1.112 5.38739C1.21574 5.46027 1.3379 5.49945 1.46303 5.5Z" fill="#9C4619"/>
</svg>
