<svg width="14" height="14" viewBox="0 0 14 14" fill="none" xmlns="http://www.w3.org/2000/svg">
<path fill-rule="evenodd" clip-rule="evenodd" d="M1.70925 0.29327C1.3183 -0.0976991 0.684362 -0.0977652 0.293323 0.293123C-0.0977166 0.684011 -0.0977827 1.31783 0.293175 1.7088L5.58536 7.00114L0.301071 12.2845C-0.0899276 12.6754 -0.0899276 13.3092 0.301071 13.7002C0.692069 14.0911 1.326 14.0911 1.717 13.7002L7.00114 8.41697L12.2907 13.7067C12.6817 14.0977 13.3156 14.0978 13.7067 13.7069C14.0977 13.316 14.0978 12.6822 13.7068 12.2912L8.41707 7.00129L13.7046 1.71474C14.0956 1.32381 14.0956 0.689991 13.7046 0.299062C13.3136 -0.0918667 12.6796 -0.0918667 12.2886 0.299062L7.00129 5.58546L1.70925 0.29327Z" fill="#3C1F1D"/>
</svg>
